# ProBuilder 5.0.6
# https://unity3d.com/unity/features/worldbuilding/probuilder
# 15/10/2022 18:57:48

mtllib ./MedKitItem.mtl
o MedKitItem

g Cube
v 0.328899 0.1131555 0.2628007
v 0.05266693 0.1131555 0.2628007
v 0.328899 0.1131555 0.04208243
v 0.05266693 0.1131555 0.04208243
v 0.3394083 0 0.03368537
v 0.0421576 0 0.03368537
v 0.3394083 0 0.2711978
v 0.0421576 0 0.2711978
v 0.3815659 0.03771851 0
v 0.3815659 0.07543702 0
v 0 0.07543703 0
v 0 0.03771852 0
v 0.3815659 0.03771852 0.3048831
v 0.3815659 0.07543703 0.3048831
v 0 0.03771852 0.3048831
v 0 0.07543703 0.3048831

vt 0.1774357 0.7573237
vt 0.8211918 0.7573237
vt 0.1774357 0.2429419
vt 0.8211918 0.2429419
vt 0.2743019 0.1078994
vt 0.115035 0.1078994
vt 0.2743019 0.2351584
vt 0.115035 0.2351584
vt 0.5110295 0.03929855
vt 0.3348328 0.03929855
vt 0.3098438 0.06027608
vt 0.3098438 0.08258419
vt 0.3410623 0.1065546
vt 0.5048001 0.1065546
vt 0.5360186 0.08258419
vt 0.5360186 0.06027608
vt 0.5160515 0.02120977
vt 0.375265 0.02120977
vt 0.3552978 0.04140837
vt 0.3552978 0.06368849
vt 0.3802423 0.08856902
vt 0.5110741 0.08856902
vt 0.5360186 0.06368848
vt 0.5360186 0.04140837
vt 0.2391538 0.6570775
vt 0.06295714 0.6570775
vt 0.03796804 0.678055
vt 0.03796804 0.7003632
vt 0.06918659 0.7243335
vt 0.2329243 0.7243335
vt 0.2641429 0.7003632
vt 0.2641429 0.678055
vt 0.1987217 0.6698714
vt 0.05793519 0.6698714
vt 0.03796804 0.69007
vt 0.03796804 0.7123501
vt 0.06291258 0.7372307
vt 0.1937443 0.7372307
vt 0.2186888 0.7123501
vt 0.2186888 0.69007

vn 0 0.54038 0
vn 0 -0.54038 0
vn -1.89903E-09 -0.3599499 -0.4030467
vn -1.26602E-09 -0.2399666 -0.4488245
vn 2.830657E-09 0.1341335 -0.4804773
vn 4.245985E-09 0.4024006 -0.360672
vn 2.830657E-09 0.2682671 -0.4205747
vn -1.26602E-09 -0.1199833 -0.4946023
vn 0.3603149 -0.4027204 0
vn 0.4803583 -0.1342401 1.772713E-09
vn 0.3898851 0.2928888 -3.867754E-09
vn 0.3146376 0.4393333 0
vn 0.4651325 0.1464444 -3.867754E-09
vn 0.4203366 -0.2684803 1.772713E-09
vn 0 -0.3599499 0.4030467
vn 0 -0.2399666 0.4488245
vn 0 0.1341335 0.4804773
vn 0 0.4024006 0.360672
vn 0 0.2682671 0.4205747
vn 0 -0.1199833 0.4946023
vn -0.360315 -0.4027204 0
vn -0.4203366 -0.2684803 0
vn -0.4651325 0.1464444 0
vn -0.3146376 0.4393333 0
vn -0.3898851 0.2928888 0
vn -0.4803583 -0.1342401 0

usemtl MedKitTexture
f 15/27/16 8/26/15 7/25/15
f 15/27/16 7/25/15 13/32/20
f 16/28/17 15/27/16 13/32/20
f 16/28/17 13/32/20 14/31/19
f 2/29/18 16/28/17 14/31/19
f 2/29/18 14/31/19 1/30/18
f 12/35/22 6/34/21 8/33/21
f 12/35/22 8/33/21 15/40/26
f 11/36/23 12/35/22 15/40/26
f 11/36/23 15/40/26 16/39/25
f 4/37/24 11/36/23 16/39/25
f 4/37/24 16/39/25 2/38/24
f 11/15/7 4/14/6 3/13/6
f 10/12/5 11/15/7 3/13/6
f 10/12/5 12/16/8 11/15/7
f 10/12/5 9/11/4 12/16/8
f 9/11/4 6/9/3 12/16/8
f 9/11/4 5/10/3 6/9/3
f 1/21/12 14/20/11 3/22/12
f 14/20/11 10/23/13 3/22/12
f 14/20/11 13/19/10 10/23/13
f 13/19/10 9/24/14 10/23/13
f 13/19/10 7/18/9 9/24/14
f 7/18/9 5/17/9 9/24/14
f 4/4/1 2/2/1 1/1/1
f 1/1/1 3/3/1 4/4/1
f 8/8/2 6/6/2 5/5/2
f 5/5/2 7/7/2 8/8/2

